<?xml version="1.0" ?><!DOCTYPE svg  PUBLIC '-//W3C//DTD SVG 1.1//EN'  'http://www.w3.org/Graphics/SVG/1.1/DTD/svg11.dtd'><svg enable-background="new 0 0 800 800" height="800px" id="Layer_1" version="1.1" viewBox="0 0 800 800" width="800px" xml:space="preserve" xmlns="http://www.w3.org/2000/svg" xmlns:xlink="http://www.w3.org/1999/xlink"><g><path d="M727.939,481.899H371.642l115.021-137.007c5.601-6.028,54.386-60.206,43.708-105.833   c-8.933-38.125-34.914-170.498-35.176-171.841c-1.152-5.863-5.541-10.557-11.307-12.092c-5.768-1.526-11.917,0.349-15.834,4.851   L101.364,481.899H72.068c-29.453,0-53.427,23.957-53.427,53.418v156.662c0,29.452,23.974,53.418,53.427,53.418h655.871   c29.453,0,53.419-23.966,53.419-53.418V535.317C781.358,505.856,757.393,481.899,727.939,481.899z M470.697,104.592   c8.34,42.024,22.839,114.279,29.226,141.595c5.845,24.969-24.934,65.283-36.694,78.012L330.83,481.899H142.796L470.697,104.592z    M750.09,691.979c0,12.214-9.936,22.15-22.15,22.15H176.654h-46.919H72.068c-12.214,0-22.16-9.937-22.16-22.15v-67.944v-82.934   v-5.784c0-12.223,9.946-22.15,22.16-22.15h2.129h41.423h188.949h40.813h382.558c12.215,0,22.15,9.928,22.15,22.15V691.979z" fill="#4D4D4D"/><path d="M125.443,555.68c-26.923,0-49.484,18.819-55.347,43.979c-0.968,4.152-1.535,8.454-1.535,12.895   c0,31.354,25.519,56.873,56.882,56.873c2.076,0,4.126-0.131,6.15-0.35c28.476-3.079,50.714-27.245,50.714-56.523   C182.308,581.198,156.799,555.68,125.443,555.68z M125.443,638.159c-14.125,0-25.614-11.481-25.614-25.605   s11.489-25.605,25.614-25.605c14.116,0,25.597,11.481,25.597,25.605S139.56,638.159,125.443,638.159z" fill="#4D4D4D"/><path d="M378.289,263.173c-6.543-5.619-16.419-4.868-22.046,1.684l-81.685,95.173   c-5.619,6.552-4.868,16.419,1.684,22.046c2.948,2.53,6.569,3.769,10.172,3.769c4.406,0,8.786-1.85,11.874-5.453l81.686-95.172   C385.601,278.667,384.841,268.8,378.289,263.173z" fill="#4D4D4D"/></g></svg>